<svg version="1.1" id="Layer_1" xmlns="http://www.w3.org/2000/svg" xmlns:xlink="http://www.w3.org/1999/xlink" x="0px" y="0px"
	 width="100%" viewBox="0 0 640 640" enable-background="new 0 0 640 640" xml:space="preserve">
<path fill="#000000" opacity="1.000000" stroke="none" 
	d="
M641.000000,317.571533 
	C613.267029,324.467224 585.418457,325.260895 557.022339,318.845184 
	C557.683716,322.667511 559.996948,324.179810 561.958618,325.809875 
	C570.605164,332.994659 573.107788,342.445953 572.153320,353.143494 
	C571.795959,357.148682 569.683838,358.214264 566.444092,355.983124 
	C557.541382,349.852203 551.557983,342.298523 551.493713,330.526825 
	C551.426514,318.212830 546.406128,314.272614 536.217651,313.992584 
	C525.337830,313.693604 514.585144,314.249573 503.938202,316.476166 
	C497.646088,317.792084 491.348297,317.532318 485.046295,316.763367 
	C483.152618,316.532349 481.430389,316.615540 479.117401,318.101288 
	C481.498108,323.825470 485.255768,328.607178 489.274750,333.135498 
	C498.540863,343.575989 503.505676,355.858917 505.341736,369.533539 
	C505.820923,373.102692 507.094849,376.619934 506.345154,380.464874 
	C503.529724,381.719757 501.844330,379.745697 500.316254,378.211578 
	C489.158508,367.009796 480.639801,354.413147 478.568634,338.172180 
	C477.680450,331.207489 474.874054,324.743042 471.643524,318.477112 
	C469.360626,314.049255 465.255249,312.725861 461.020782,311.878601 
	C457.334137,311.140930 457.788452,314.566528 457.585358,316.598022 
	C456.930450,323.149109 454.197174,328.662720 450.168091,333.753937 
	C444.194366,341.302582 435.929352,343.165649 427.019714,343.307831 
	C411.355225,343.557892 395.715729,342.980408 380.113922,341.449799 
	C378.212463,341.263245 376.190704,340.579926 374.220886,341.722076 
	C374.037994,344.224274 375.931396,345.618439 377.185791,347.263123 
	C386.778259,359.840088 397.030396,371.940125 405.748566,385.149353 
	C414.135376,397.856476 413.283417,408.938843 403.975555,421.036102 
	C402.438232,423.034088 399.260223,424.940948 400.830292,427.765198 
	C402.326080,430.455811 405.772614,429.760651 408.592163,429.939423 
	C416.885010,430.465118 424.379364,427.742859 431.629974,424.297974 
	C446.023376,417.459351 460.867523,417.359467 476.030121,420.802246 
	C477.953064,421.238861 477.955658,421.227448 481.478333,424.196350 
	C471.629211,431.967346 460.252625,434.952881 448.615082,437.324554 
	C436.831085,439.726105 424.950836,434.752686 413.153473,437.149536 
	C413.153473,438.095490 413.013275,438.539032 413.173492,438.728424 
	C423.741211,451.219818 428.700836,466.962372 437.427948,480.515533 
	C438.689453,482.474640 440.037781,484.386078 441.458099,486.233276 
	C448.154449,494.942078 454.546875,496.227081 464.364441,489.867126 
	C473.561249,483.909241 482.659729,483.687286 492.297302,488.235138 
	C497.057770,490.481506 497.402130,492.014069 493.316681,495.119720 
	C485.205994,501.285217 476.639862,505.607452 466.029755,501.671692 
	C464.234314,501.005707 462.164673,500.568359 459.936157,501.683868 
	C460.061737,504.615204 462.339478,506.283356 464.102356,508.040802 
	C481.645996,525.529663 493.744141,546.443237 502.833496,569.261169 
	C503.656799,571.327942 505.189667,573.395081 503.331635,576.632996 
	C491.413055,569.909424 481.950775,560.462280 472.867859,550.648804 
	C463.698853,540.742310 456.593719,529.288208 449.404907,517.090698 
	C447.580078,520.492249 446.037323,523.181580 444.668243,525.956604 
	C441.177094,533.032837 435.639465,538.267578 429.484070,542.932190 
	C428.038269,544.027893 426.325836,545.090149 424.413971,544.063904 
	C422.651703,543.117981 422.861176,541.252075 422.847229,539.608154 
	C422.724182,525.114807 426.375854,511.891113 436.438019,501.039612 
	C439.154083,498.110504 439.508850,495.814117 437.256073,492.334747 
	C432.787964,485.433899 428.112671,478.875885 421.366119,473.929657 
	C413.954742,468.496124 407.381470,462.174561 402.932098,453.506805 
	C400.042603,456.071838 399.169922,458.890564 398.185944,461.658875 
	C392.418854,477.884003 383.884430,492.442932 371.887115,504.861298 
	C370.006012,506.808472 368.399109,509.434570 365.096222,509.418549 
	C363.061066,507.836060 363.770874,505.727844 364.008789,503.854706 
	C366.985962,480.415924 375.495239,459.161255 389.344574,440.029419 
	C391.462250,437.104034 391.434509,437.083954 392.021332,433.821655 
	C390.074860,432.721924 388.196411,433.407288 386.302612,434.039215 
	C368.096008,440.114410 354.663666,435.273163 344.437897,418.844818 
	C339.773926,411.351837 335.265625,403.761963 330.691498,396.213104 
	C329.837891,394.804321 329.147980,393.242737 326.773102,392.618439 
	C322.994507,399.247162 319.218353,406.026306 315.289062,412.715515 
	C312.170258,418.024963 309.153809,423.431335 305.582550,428.430847 
	C297.359467,439.942688 282.657379,443.358002 269.987518,437.232178 
	C267.639069,436.096710 264.574493,432.908905 262.499817,435.685059 
	C260.287048,438.645966 263.617432,441.496429 265.671448,443.761200 
	C277.722443,457.048401 288.435364,471.195465 294.648407,488.260101 
	C296.526917,493.419678 298.163574,498.669128 299.827026,503.904083 
	C300.324615,505.470093 300.937073,507.378479 299.252411,508.488922 
	C297.584564,509.588318 296.063477,508.231995 294.737091,507.292114 
	C281.333282,497.793793 270.729645,485.773712 262.624268,471.511292 
	C260.346497,467.503265 258.533081,463.204987 255.006714,458.930420 
	C250.672897,467.144073 245.420654,474.131073 239.808746,480.817322 
	C233.972290,487.771179 229.370010,495.433044 225.422409,503.555054 
	C223.987549,506.507263 224.191727,508.733917 226.987503,510.927734 
	C238.599304,520.039368 244.899429,532.137451 246.496643,546.740601 
	C246.703156,548.628662 247.875763,550.862305 245.676865,552.228638 
	C243.666229,553.477905 241.743561,552.048096 240.074295,551.125305 
	C231.792236,546.546814 224.457031,540.925781 220.204453,532.103516 
	C219.781342,531.225769 219.302338,530.302429 217.668243,529.914429 
	C213.730240,535.679382 211.596191,542.534851 208.517944,548.873657 
	C200.573318,565.233459 189.860229,579.570801 177.475800,592.744263 
	C176.039688,594.271790 174.333923,595.797546 171.151031,594.907715 
	C175.815994,564.822266 188.740616,538.488159 207.821625,513.794983 
	C203.208633,513.972717 200.166473,515.519104 197.155731,516.947998 
	C187.540955,521.511108 178.672943,519.425110 170.205994,514.018494 
	C166.270767,511.505676 166.260300,509.935272 170.111298,507.533905 
	C178.994675,501.994446 188.160934,498.841919 198.302872,504.535645 
	C199.872757,505.416962 201.714584,505.882477 203.484116,506.327820 
	C211.374023,508.313446 213.922165,507.158844 218.516769,500.445984 
	C223.953384,492.502869 227.454880,483.791473 229.913010,474.535553 
	C232.441071,465.016388 235.625626,455.724365 241.359894,447.532349 
	C241.801712,446.901154 241.909912,446.036438 242.333481,444.819885 
	C236.824768,443.587372 231.773132,444.805695 227.021500,446.357269 
	C216.048019,449.940430 204.986526,451.545502 193.587234,449.304535 
	C186.499771,447.911255 179.451996,446.244080 172.506042,441.760712 
	C178.803940,436.746063 185.315033,434.743011 192.221298,433.686371 
	C203.913849,431.897491 215.330704,432.635895 226.769043,436.076355 
	C233.297821,438.040100 240.384598,437.346771 247.147705,436.533447 
	C253.689514,435.746796 256.440155,428.743805 252.696899,423.685455 
	C246.061172,414.718475 246.610794,405.276642 251.445816,395.897705 
	C258.464355,382.283295 265.810852,368.837982 272.995270,355.308777 
	C273.845703,353.707367 274.556885,352.032013 275.603241,349.818481 
	C266.678467,349.296417 258.383057,351.017181 250.030746,351.862823 
	C237.822495,353.098877 225.625320,355.773834 213.321548,353.443695 
	C201.146851,351.137970 194.361542,343.155853 191.660965,331.361938 
	C191.197769,329.339081 191.452957,327.002319 189.212860,325.688690 
	C186.840012,326.466675 186.719650,328.715851 185.996811,330.456146 
	C179.325165,346.518555 171.710663,362.014191 160.099472,375.230530 
	C155.682678,380.257904 151.001129,384.962006 145.512543,388.813568 
	C144.178253,389.749878 142.761444,391.209015 141.038635,390.054535 
	C139.230682,388.843018 140.376678,386.954315 140.694901,385.438080 
	C144.758835,366.075073 152.246933,348.285461 165.011139,332.942108 
	C165.736801,332.069855 166.291336,331.055237 166.896194,330.150696 
	C165.994293,328.221771 164.342102,328.458832 162.935135,328.425110 
	C155.556992,328.247955 148.352158,327.112396 141.413635,324.570862 
	C132.626907,321.352417 123.535965,321.001587 114.317955,321.273651 
	C111.338387,321.361542 109.921272,322.357544 109.055588,325.296661 
	C105.661186,336.821136 100.587502,347.403046 90.725533,354.959656 
	C87.066734,357.763184 83.507950,360.860138 77.664482,360.621002 
	C77.144363,347.787262 80.249634,336.308258 88.637444,325.232483 
	C60.905914,325.460480 34.103130,325.754517 9.569035,312.515961 
	C38.368519,301.978577 67.516434,303.592285 97.484962,309.342987 
	C95.850304,305.465454 92.861130,303.795258 90.548828,301.683685 
	C82.320663,294.169830 80.731873,284.608063 81.782425,274.265991 
	C82.205238,270.103638 85.056870,271.128754 87.244835,272.682983 
	C95.256065,278.373749 101.941551,285.333038 101.905403,295.798615 
	C101.847969,312.425415 107.948166,312.409241 122.322639,314.556213 
	C128.802368,315.524017 135.359894,314.304382 141.606613,312.591156 
	C150.318939,310.201752 159.105835,310.794525 167.913406,310.782990 
	C169.682465,310.780670 171.586441,311.325409 173.459122,309.752350 
	C172.880417,305.009216 169.967499,301.358551 166.845901,298.018280 
	C157.013870,287.497589 150.678040,275.274353 148.236435,261.080719 
	C147.701309,257.969971 147.519882,254.799301 147.140900,251.660400 
	C146.939102,249.989059 146.500946,248.137573 148.410690,247.255814 
	C150.310349,246.378708 151.537277,247.967255 152.661560,249.111526 
	C164.119659,260.773621 172.421326,274.165253 175.253357,290.546478 
	C176.307053,296.641327 177.896561,302.583771 180.876587,308.064056 
	C181.507538,309.224396 182.083115,310.521423 183.025391,311.381897 
	C184.596954,312.817047 186.327438,314.770691 188.526291,314.425354 
	C191.115005,314.018829 191.055893,311.178436 191.570435,309.183624 
	C195.386215,294.389923 205.175980,286.772461 220.405685,286.624664 
	C236.248337,286.470947 252.033279,287.028656 267.722290,289.443542 
	C269.797943,289.763031 271.998810,290.123230 274.380463,289.010864 
	C273.782867,285.767822 271.497284,283.530579 269.583374,281.205353 
	C260.264923,269.884216 251.277084,258.310577 242.938568,246.252823 
	C233.012802,231.899857 234.569351,217.909607 247.192841,205.868927 
	C248.973907,204.170105 251.135529,202.812103 252.422287,200.366577 
	C246.150162,193.929459 238.630554,195.065231 231.423203,196.968216 
	C225.023315,198.657974 218.884689,201.383514 212.696396,203.818649 
	C199.823166,208.884354 186.842010,207.116776 173.841660,204.597351 
	C172.393906,204.316788 170.677628,203.906189 170.269989,202.252640 
	C169.755615,200.166077 171.628632,199.381317 173.010590,198.573318 
	C188.048676,189.780563 204.180206,186.535965 221.440323,189.194229 
	C226.741760,190.010712 231.934570,189.752426 238.485657,187.783966 
	C224.996674,176.237762 221.863647,159.542984 212.936218,146.205215 
	C209.873535,141.629517 206.104477,137.618591 201.861115,134.051559 
	C199.182434,131.799850 196.646271,130.933243 193.267273,132.789398 
	C189.043457,135.109619 184.511551,136.862045 180.229141,139.084076 
	C171.433548,143.647873 163.324432,140.395370 155.343094,136.888474 
	C152.779724,135.762177 153.677017,133.414291 155.399307,131.995758 
	C163.248230,125.531174 171.731598,120.962769 182.422134,123.857117 
	C185.108185,124.584343 187.784821,125.340637 191.194702,124.513756 
	C186.980576,119.679909 183.134842,115.195656 179.211014,110.780800 
	C164.528580,94.261047 153.825607,75.386345 146.024216,54.793869 
	C145.515274,53.450462 144.520416,51.829613 146.168884,50.717625 
	C147.675690,49.701191 149.081253,50.909878 150.255051,51.743862 
	C160.344742,58.912582 169.448471,67.176399 177.628983,76.471992 
	C186.221481,86.235748 193.329544,97.050850 200.251358,108.912514 
	C202.267410,105.310997 203.970001,102.367424 205.579666,99.373886 
	C209.129517,92.772171 214.276047,87.604195 220.221115,83.205917 
	C224.098236,80.337540 225.803619,80.911423 226.564285,85.503891 
	C228.329971,96.164162 225.351807,105.949600 220.248459,115.147919 
	C218.401306,118.477211 216.194016,121.738503 213.567886,124.470184 
	C210.343460,127.824234 210.208923,130.615372 212.704941,134.519424 
	C216.513397,140.476288 220.861481,145.882111 226.142365,150.532471 
	C233.746841,157.229019 241.978531,163.276672 248.276703,173.482651 
	C256.336487,150.612396 266.027008,130.211426 284.467590,115.396172 
	C286.793915,117.616318 286.147614,119.693695 285.956573,121.593979 
	C283.917999,141.872955 276.964783,160.416733 266.098907,177.574432 
	C263.781555,181.233673 261.559082,184.953445 259.321625,188.662643 
	C258.349457,190.274307 257.525635,192.053864 258.723419,193.801971 
	C259.849579,195.445557 261.722504,194.873352 263.349915,194.741791 
	C267.970612,194.368210 272.381744,192.533691 277.169464,193.145706 
	C287.619690,194.481583 295.577820,199.738297 301.304840,208.363617 
	C306.462280,216.131104 311.283966,224.120819 316.324951,231.966766 
	C317.542450,233.861725 318.268280,236.222015 320.993134,237.443420 
	C326.327423,230.184601 329.954254,221.934631 334.618011,214.319122 
	C338.088715,208.651764 340.991364,202.662720 345.771759,197.817627 
	C353.588837,189.894684 366.647095,187.077072 378.516083,193.063492 
	C379.380157,193.499313 380.187073,194.244446 382.428772,192.911179 
	C363.530609,173.120560 348.223969,151.372818 344.552094,123.388985 
	C364.319489,135.219971 378.409027,152.080109 387.896027,172.414017 
	C390.435608,172.200912 390.891907,170.773422 391.447815,169.651703 
	C394.963837,162.557022 399.888763,156.454681 405.132629,150.647568 
	C410.689026,144.494385 414.442352,137.330383 418.114471,130.020767 
	C419.989136,126.289200 419.653076,123.883774 416.303589,121.061195 
	C405.697449,112.123535 399.109589,100.842834 397.946381,86.763779 
	C397.771332,84.645203 397.095093,82.505836 398.327576,79.574165 
	C411.167297,82.802429 419.353607,91.827583 427.300079,103.221939 
	C437.517426,77.013908 450.778992,54.026325 471.654816,35.571491 
	C473.882904,38.559364 473.147614,40.786617 472.644928,43.005825 
	C467.361908,66.329033 458.272400,87.985901 444.457550,107.588699 
	C442.635620,110.173965 440.966675,112.868111 439.267517,115.537697 
	C439.020966,115.925087 439.003052,116.458023 438.828430,117.115227 
	C440.985718,118.516319 442.713593,117.109444 444.292175,116.213943 
	C454.445496,110.454170 464.141266,112.298363 473.654480,117.785912 
	C477.981140,120.281670 478.105896,122.328636 473.889679,124.890091 
	C465.072937,130.246445 455.933746,132.748306 445.970093,127.772362 
	C443.912659,126.744858 441.560516,126.273369 439.310181,125.673347 
	C434.863312,124.487671 431.325378,125.585861 428.278503,129.322449 
	C422.155121,136.831940 418.183533,145.349197 415.471069,154.540054 
	C412.546844,164.448639 409.765045,174.407944 403.880981,183.117752 
	C403.134766,184.222321 402.663086,185.456223 402.853302,187.474030 
	C408.034637,188.322372 413.100098,187.335190 417.798248,185.641205 
	C433.994080,179.801544 449.862640,181.386108 465.651886,186.990768 
	C467.626648,187.691742 469.822815,188.153198 471.562439,190.125275 
	C469.877991,193.381134 466.500183,194.299896 463.572449,195.278778 
	C448.850708,200.200897 433.951843,201.159485 418.930542,196.449875 
	C411.746429,194.197464 404.345276,194.953033 397.122528,195.734528 
	C391.518402,196.340881 390.494019,199.985519 393.962616,204.234039 
	C401.947083,214.013733 402.557343,224.342331 396.528076,235.339005 
	C389.323273,248.479721 382.283722,261.711121 375.189636,274.912354 
	C374.414062,276.355621 373.378510,277.733978 373.657196,279.989471 
	C379.797577,281.989746 385.965149,279.943451 392.059204,279.271606 
	C401.965698,278.179474 411.790192,276.361755 421.685608,275.145935 
	C438.006104,273.140625 451.979797,282.632874 456.554688,298.540009 
	C457.096100,300.422577 457.382751,302.788239 460.115875,302.587646 
	C463.390778,302.347260 466.324310,301.371460 467.605927,297.808350 
	C470.032135,291.062927 473.186798,284.642883 476.277008,278.180969 
	C483.611725,262.843506 494.544525,250.434586 507.209747,239.386429 
	C508.557739,238.210587 510.105621,236.481598 511.993073,237.444656 
	C514.360413,238.652557 513.038574,240.922440 512.702881,242.801682 
	C509.412445,261.223877 501.341858,277.499664 490.386963,292.479553 
	C489.403595,293.824188 488.395660,295.152802 487.468109,296.535156 
	C487.213562,296.914490 487.209412,297.461914 487.111664,297.848083 
	C487.578552,299.145691 488.733368,299.262115 489.634247,299.270844 
	C501.472900,299.385803 512.392029,304.059326 523.835693,306.119568 
	C529.143127,307.075073 534.462036,306.714172 539.783020,306.807098 
	C542.789795,306.859650 543.524292,304.777191 544.352966,302.433197 
	C547.751892,292.817993 551.634888,283.487427 559.239807,276.197052 
	C562.532593,273.040436 566.147034,270.454651 570.129517,268.333740 
	C571.560608,267.571594 573.118835,266.368896 574.775940,267.363617 
	C576.661682,268.495575 576.300781,270.585724 576.092102,272.366089 
	C575.018250,281.526550 573.183044,290.461548 567.906250,298.306793 
	C567.269470,299.253571 566.474487,300.189423 567.203796,302.773743 
	C591.766724,301.772949 616.584473,302.779419 640.636963,311.906006 
	C641.000000,313.714355 641.000000,315.428711 641.000000,317.571533 
M271.956482,422.562744 
	C282.473419,426.581665 286.383575,425.133606 291.854797,415.180817 
	C292.335999,414.305481 292.778320,413.408142 293.219666,412.511658 
	C302.925873,392.794495 312.594635,373.058685 322.383331,353.382538 
	C323.446381,351.245697 324.048767,348.631195 326.419647,347.407715 
	C327.812775,347.735199 328.457458,348.730652 329.079956,349.714508 
	C336.289642,361.109467 343.524750,372.488617 350.677307,383.919373 
	C356.063263,392.526947 361.116974,401.351288 366.740814,409.798004 
	C370.656616,415.679291 374.125153,416.234680 380.457458,413.213409 
	C395.191223,406.183716 396.727112,401.889618 389.470490,387.162567 
	C382.406708,372.826813 375.177216,358.565765 368.983643,343.827637 
	C366.138885,337.058258 367.077118,335.805542 374.318939,334.843231 
	C390.624268,332.676514 406.790894,329.580627 423.248871,328.397888 
	C433.434296,327.665985 437.773895,323.377716 438.233704,314.975800 
	C438.431519,311.360779 438.034271,307.632996 437.338501,304.067444 
	C436.197632,298.220612 432.834045,295.580078 426.861938,295.291412 
	C424.201294,295.162811 421.530975,295.237030 418.865112,295.213135 
	C399.213837,295.037140 379.594086,294.141510 359.991943,292.755615 
	C356.492737,292.508209 355.220123,291.502258 357.472137,288.219513 
	C365.114929,277.078766 371.651978,265.266724 377.853790,253.304306 
	C382.503296,244.336044 388.294983,235.792786 390.171783,225.583160 
	C391.196991,220.005936 389.585663,215.378448 384.699860,212.162582 
	C380.348236,209.298309 375.561554,207.436264 370.552765,206.094086 
	C365.309113,204.688965 361.450562,206.860672 358.548859,210.992523 
	C357.025635,213.161545 355.806732,215.566956 354.633575,217.955551 
	C344.724701,238.130096 334.865967,258.329224 324.963806,278.507050 
	C324.188477,280.086975 323.856140,282.089600 321.579712,282.659943 
	C320.193237,282.073151 319.348267,280.865814 318.540588,279.595428 
	C313.091095,271.024139 307.546600,262.511932 302.192719,253.881454 
	C295.609436,243.269211 289.264923,232.508606 282.657959,221.911438 
	C278.226837,214.804230 274.274261,213.742355 266.659668,217.213165 
	C265.151733,217.900513 263.712006,218.755753 262.296112,219.623779 
	C253.343063,225.112625 251.960449,229.765503 256.481964,239.130783 
	C264.224884,255.168381 272.078247,271.153870 279.666687,287.264160 
	C282.234985,292.716614 281.851929,293.164032 275.825043,294.417450 
	C257.745789,298.177429 239.343964,299.923004 221.163803,303.061584 
	C212.835403,304.499359 209.560242,307.493256 209.608170,315.882812 
	C209.673004,327.228180 210.121933,335.241577 226.350922,335.253967 
	C246.329391,335.269165 266.307556,336.262360 286.284485,336.876404 
	C288.198273,336.935181 290.337891,336.332123 291.879364,338.180603 
	C292.224243,340.270508 290.767639,341.584137 289.808685,343.084259 
	C279.210205,359.664490 269.926208,376.975342 261.175018,394.581543 
	C255.180557,406.641479 253.942932,415.737030 271.956482,422.562744 
z"/>
</svg>